<svg xmlns="http://www.w3.org/2000/svg" viewBox="0 0 500 300">
  <!-- Background post list -->
  <rect x="50" y="50" width="200" height="200" fill="#fff" stroke="#ddd" stroke-width="2" rx="10" />
  
  <!-- Post items -->
  <rect x="70" y="80" width="30" height="30" fill="#eee" rx="4" />
  <line x1="110" y1="95" x2="230" y2="95" stroke="#eee" stroke-width="10" stroke-linecap="round" />
  
  <rect x="70" y="130" width="30" height="30" fill="#eee" rx="4" />
  <line x1="110" y1="145" x2="230" y2="145" stroke="#eee" stroke-width="10" stroke-linecap="round" />
  
  <rect x="70" y="180" width="30" height="30" fill="#eee" rx="4" />
  <line x1="110" y1="195" x2="230" y2="195" stroke="#eee" stroke-width="10" stroke-linecap="round" />
  
  <!-- Floating post -->
  <rect x="150" y="100" width="250" height="100" fill="#fff" stroke="#ddd" stroke-width="2" rx="10" transform="rotate(5)" />
  
  <!-- Post header -->
  <rect x="170" y="120" width="30" height="30" fill="#e86225" rx="4" transform="rotate(5)" />
  <line x1="210" y1="135" x2="380" y2="135" stroke="#eee" stroke-width="8" stroke-linecap="round" transform="rotate(5)" />
  
  <!-- Post content -->
  <line x1="170" y1="160" x2="380" y2="160" stroke="#eee" stroke-width="4" stroke-linecap="round" transform="rotate(5)" />
  <line x1="170" y1="175" x2="380" y2="175" stroke="#eee" stroke-width="4" stroke-linecap="round" transform="rotate(5)" />
  
  <!-- Person -->
  <circle cx="450" cy="250" r="20" fill="#e86225" />
  <rect x="440" y="270" width="20" height="50" fill="#e86225" rx="5" />
  <rect x="430" y="290" width="40" height="15" fill="#333" rx="2" />
  <line x1="430" y1="320" x2="450" y2="320" stroke="#333" stroke-width="10" stroke-linecap="round" />
  <line x1="450" y1="320" x2="470" y2="320" stroke="#333" stroke-width="10" stroke-linecap="round" />
</svg>

